<svg width="35" height="49" viewBox="0 0 35 49" fill="none" xmlns="http://www.w3.org/2000/svg">
<path d="M6.672 43C6.128 43 5.68 42.824 5.328 42.472C4.976 42.12 4.8 41.672 4.8 41.128V7.384C4.8 6.84 4.976 6.392 5.328 6.04C5.68 5.688 6.128 5.512 6.672 5.512C7.248 5.512 7.728 5.736 8.112 6.184L31.056 36.328V7.384C31.056 6.84 31.232 6.392 31.584 6.04C31.936 5.688 32.384 5.512 32.928 5.512C33.44 5.512 33.872 5.688 34.224 6.04C34.608 6.392 34.8 6.84 34.8 7.384V41.128C34.8 41.672 34.608 42.12 34.224 42.472C33.872 42.824 33.44 43 32.928 43C32.672 43 32.416 42.952 32.16 42.856C31.904 42.76 31.696 42.6 31.536 42.376L8.544 12.232V41.128C8.544 41.672 8.352 42.12 7.968 42.472C7.616 42.824 7.184 43 6.672 43Z" fill="#808080"/>
<path d="M6.811 43C6.25567 43 5.79833 42.8203 5.439 42.461C5.07967 42.1017 4.9 41.6443 4.9 41.089V6.642C4.9 6.08666 5.07967 5.62933 5.439 5.27C5.79833 4.91067 6.25567 4.731 6.811 4.731H15.974C18.3587 4.731 20.482 5.23733 22.344 6.25C24.206 7.23 25.6597 8.61833 26.705 10.415C27.783 12.179 28.322 14.2207 28.322 16.54C28.322 18.7613 27.783 20.7377 26.705 22.469C25.6597 24.2003 24.206 25.556 22.344 26.536C20.482 27.516 18.3587 28.006 15.974 28.006H8.722V41.089C8.722 41.6443 8.54233 42.1017 8.183 42.461C7.82367 42.8203 7.36633 43 6.811 43ZM27.293 43C26.8683 43 26.5253 42.9183 26.264 42.755C26.0353 42.5917 25.823 42.3467 25.627 42.02L16.219 27.026L20.041 26.046L28.812 40.06C29.302 40.844 29.3837 41.53 29.057 42.118C28.763 42.706 28.175 43 27.293 43ZM8.722 24.331H15.974C17.64 24.331 19.11 24.0043 20.384 23.351C21.6907 22.665 22.7197 21.734 23.471 20.558C24.2223 19.382 24.598 18.0427 24.598 16.54C24.598 14.9393 24.2223 13.5347 23.471 12.326C22.7197 11.0847 21.6907 10.121 20.384 9.435C19.11 8.749 17.64 8.406 15.974 8.406H8.722V24.331Z" fill="#FEA319"/>
</svg>
